<svg width="64" height="64" viewBox="0 0 64 64" fill="none" xmlns="http://www.w3.org/2000/svg">
  <defs>
    <linearGradient id="bg" x1="8" y1="56" x2="56" y2="8" gradientUnits="userSpaceOnUse">
      <stop stop-color="#F59E0B"/>
      <stop offset="0.45" stop-color="#F97316"/>
      <stop offset="1" stop-color="#8B5CF6"/>
    </linearGradient>
    <linearGradient id="beam" x1="32" y1="12" x2="32" y2="52" gradientUnits="userSpaceOnUse">
      <stop stop-color="#FEF3C7"/>
      <stop offset="0.5" stop-color="#FFFFFF"/>
      <stop offset="1" stop-color="#A5F3FC" stop-opacity="0.9"/>
    </linearGradient>
    <linearGradient id="ring" x1="12" y1="52" x2="52" y2="12" gradientUnits="userSpaceOnUse">
      <stop stop-color="#22D3EE"/>
      <stop offset="1" stop-color="#A78BFA"/>
    </linearGradient>
  </defs>
  <rect x="4" y="4" width="56" height="56" rx="16" fill="url(#bg)"/>
  <rect x="4.5" y="4.5" width="55" height="55" rx="15.5" stroke="rgba(255,255,255,0.25)" stroke-width="1"/>
  <path d="M18 38 C22 30, 42 30, 46 38" stroke="url(#ring)" stroke-width="2.5" stroke-linecap="round" fill="none" opacity="0.85"/>
  <path d="M22 42 C25 36, 39 36, 42 42" stroke="url(#ring)" stroke-width="2.5" stroke-linecap="round" fill="none" opacity="0.65"/>
  <path d="M26 18 L26 46 L40 46" stroke="url(#beam)" stroke-width="5" stroke-linecap="round" stroke-linejoin="round"/>
  <circle cx="32" cy="18" r="4" fill="#FEF9C3"/>
  <path d="M32 8 L32 14 M26 10 L30 14 M38 10 L34 14" stroke="#FDE68A" stroke-width="1.5" stroke-linecap="round" opacity="0.9"/>
</svg>
